<?xml version="1.0" encoding="utf-8"?>
<!-- Generator: Adobe Illustrator 16.0.0, SVG Export Plug-In . SVG Version: 6.00 Build 0)  -->
<!DOCTYPE svg PUBLIC "-//W3C//DTD SVG 1.1//EN" "http://www.w3.org/Graphics/SVG/1.1/DTD/svg11.dtd">
<svg version="1.1" id="Calque_1" xmlns="http://www.w3.org/2000/svg" xmlns:xlink="http://www.w3.org/1999/xlink" x="0px" y="0px"
	 width="145px" height="207.333px" viewBox="135.75 -115.583 145 207.333" enable-background="new 135.75 -115.583 145 207.333"
	 xml:space="preserve">
<g>
	<g>
		<g opacity="0.8">
			<polygon fill="#9B9B9B" points="139.421,-16.322 142.956,-23.172 142.956,-109.071 148.092,-113.011 268.836,-113.011 
				278.723,-103.361 278.723,-6.437 274.967,-1.132 274.967,79.955 267.698,88.916 145.299,88.916 139.421,83.666 			"/>
			<path fill="#9B9B9B" d="M278.223-6.596l-3.572,5.045l-0.184,0.26v0.318v80.75l-7.008,8.639h-121.97l-5.568-4.975v-99.642
				l3.425-6.635l0.11-0.216v-0.243v-85.529l4.806-3.688h120.373l9.59,9.361L278.223-6.596 M279.223-6.279v-97.292l-10.182-9.94
				h-121.12l-5.466,4.193v86.023l-3.535,6.851V83.889l6.188,5.526h122.827l7.531-9.283V-0.973L279.223-6.279L279.223-6.279z"/>
		</g>
		<polygon fill="#9B9B9B" points="279.223,-3.846 276.894,0.03 276.894,78.705 279.252,76.347 		"/>
		<path fill="#9B9B9B" d="M278.701-6.445l-3.66,5.169l-0.096,0.137v0.166v80.92l-7.259,8.946h-122.38l-5.864-5.237v-99.974
			l3.477-6.737l0.06-0.111v-0.127v-85.799l5.152-3.896h120.682l9.889,9.624V-6.445 M279.223-6.279v-97.292l-10.182-9.94h-121.12
			l-5.466,4.193v86.023l-3.535,6.851V83.889l6.188,5.526h122.827l7.531-9.283V-0.973L279.223-6.279L279.223-6.279z"/>
		<g>
			<polygon fill="#9B9B9B" points="141.426,-97.677 141.426,-23.443 138.921,-18.285 138.921,-95.026 			"/>
			<polygon fill="#9B9B9B" points="138.921,-96.205 138.921,-98.708 141.426,-101.25 141.426,-98.746 			"/>
			<polygon fill="#9B9B9B" points="138.921,-99.721 138.921,-102.226 141.426,-104.767 141.426,-102.263 			"/>
		</g>
		<polygon fill="#9B9B9B" points="279.223,-109.072 279.223,-104.824 270.219,-113.511 274.271,-113.511 		"/>
		<polygon opacity="0.1" fill="#9B9B9B" enable-background="new    " points="263.074,89.192 259.649,85.767 141.349,85.767 
			145.054,89.47 		"/>
		<polygon fill="#9B9B9B" points="150.781,88.897 139.067,77.185 139.067,83.889 145.107,89.416 		"/>
		<polygon opacity="0.1" fill="#9B9B9B" enable-background="new    " points="147.922,-113.511 147.922,-53.792 142.646,-48.516 
			142.646,-109.317 		"/>
	</g>
</g>
</svg>
