<svg xmlns="http://www.w3.org/2000/svg" xml:space="preserve" width="500.5" height="176.5"><g opacity=".1"><path fill="#2FC3E9" d="m209.9 173.53-6.851-3.535H7.151l-3.941-5.136V14.114l9.651-9.886h206.923l5.305 3.756h261.087l8.961 7.27v152.399l-5.25 5.877z"/><path fill="#D92F91" d="M219.625 4.728 224.67 8.3l.26.184H485.999l8.638 7.008v151.97l-4.974 5.568H210.021l-6.635-3.424-.216-.111H7.398l-3.688-4.806V14.317l9.362-9.59h206.553m.318-.999H12.651L2.71 13.91v151.119l4.194 5.466h196.023l6.851 3.535H490.11l5.526-6.187V15.016l-9.283-7.531H225.248l-5.305-3.757z"/></g><path fill="#2FC3E9" d="m222.375 3.728 3.876 2.329h258.675l-2.358-2.358z"/><path fill="#2FC3E9" d="m219.777 4.249 5.169 3.661.136.096h261.086l8.947 7.258v152.381l-5.238 5.864H209.904l-6.738-3.477-.111-.059H7.129l-3.896-5.153V14.138l9.624-9.889h206.92m.166-.521H12.651L2.71 13.91v151.119l4.194 5.466h196.023l6.851 3.535H490.11l5.526-6.187V15.016l-9.283-7.531H225.248l-5.305-3.757z"/><g fill="#2FC3E9"><path d="M18.544 171.526h184.235l5.158 2.504H21.196zM20.017 174.03h-2.504l-2.542-2.504h2.505zM16.5 174.03h-2.505l-2.541-2.504h2.504z"/></g><path fill="#2FC3E9" d="M7.15 3.728h4.248L2.71 12.732V8.68z"/><path fill="#2FC3E9" d="m495.414 19.877-3.426 3.426v148.298l3.703-3.705z" opacity=".1"/><path fill="#2FC3E9" d="m495.119 162.17-11.713 11.714h6.704l5.527-6.04z"/><path fill="#2FC3E9" d="M2.71 165.029h169.72l5.275 5.275H6.905z" opacity=".1"/><defs opacity=".75"><path id="a" d="M3.285 34.062v130.694l4.361 5.677 196.008-.317 6.623 3.785 273.411-.314 11.353-11.04V35.008l-8.831-6.623V0H2.654z" opacity=".75"/></defs></svg>