<svg xmlns="http://www.w3.org/2000/svg" xml:space="preserve" width="492.981" height="169.72"><g opacity=".1"><path fill="#2FC3E9" d="m207.189 170.472-6.85-3.535H4.441L.5 161.801V11.056l9.651-9.887h206.923l5.304 3.757h261.087l8.961 7.27v152.399l-5.25 5.877z"/><path fill="#D92F91" d="m216.915 1.669 5.045 3.573.26.184H483.289l8.638 7.008v151.97l-4.974 5.568H207.311l-6.635-3.424-.216-.111H4.688L1 161.631V11.259l9.362-9.59h206.553m.318-1H9.94L0 10.852v151.119l4.194 5.466h196.023l6.851 3.535H487.4l5.526-6.187V11.958l-9.283-7.531H222.538L217.233.669z"/></g><path fill="#2FC3E9" d="m219.665.669 3.876 2.33h258.674L479.858.641z"/><path fill="#2FC3E9" d="m217.067 1.191 5.169 3.661.136.096h261.086l8.947 7.258v152.381l-5.238 5.864H207.194l-6.738-3.477-.111-.059H4.418l-3.896-5.153V11.08l9.624-9.889h206.921m.166-.522H9.94L0 10.852v151.119l4.194 5.466h196.023l6.851 3.535H487.4l5.526-6.187V11.958l-9.283-7.531H222.538L217.233.669z"/><g fill="#2FC3E9"><path d="M15.833 168.468h184.236l5.157 2.504H18.485zM17.307 170.972h-2.505l-2.541-2.504h2.504zM13.789 170.972h-2.504l-2.542-2.504h2.505z"/></g><path fill="#2FC3E9" d="M4.44.669h4.248L0 9.674V5.622z"/><path fill="#2FC3E9" d="m492.704 16.819-3.426 3.426v148.297l3.703-3.704z" opacity=".1"/><path fill="#2FC3E9" d="m492.409 159.112-11.713 11.714h6.704l5.526-6.04z"/><path fill="#2FC3E9" d="M0 161.971h169.719l5.275 5.275H4.194z" opacity=".1"/><defs opacity=".75"><path id="a" d="M.574 31.003v130.695l4.362 5.677 196.008-.317 6.623 3.785 273.41-.314 11.354-11.04V31.95l-8.831-6.623V-3.058H-.057z" opacity=".75"/></defs></svg>