<svg xmlns="http://www.w3.org/2000/svg" xml:space="preserve" width="446.501" height="176.5"><g opacity=".1"><path fill="#2FC3E9" d="m209.9 173.53-6.851-3.535H7.151l-3.94-5.136V14.114l9.65-9.886h206.924l5.305 3.756h211.087l8.961 7.27v152.398l-5.25 5.878H209.9z"/><path fill="#D92F91" d="M219.625 4.728 224.67 8.3l.26.184h211.068l8.639 7.008v151.97l-4.975 5.568H210.021l-6.635-3.425-.216-.11H7.398l-3.688-4.806V14.317l9.361-9.59 206.554.001m.318-1H12.651L2.71 13.91v151.119l4.193 5.466h196.023l6.851 3.535H440.11l5.526-6.188V15.016l-9.283-7.531H225.248l-5.305-3.757z"/></g><path fill="#2FC3E9" d="m222.375 3.728 3.876 2.329h208.675l-2.358-2.358-210.193.029z"/><path fill="#2FC3E9" d="m219.777 4.249 5.169 3.661.137.096h211.086l8.946 7.258v152.38l-5.237 5.864H209.904l-6.737-3.477-.111-.06H7.129l-3.896-5.152V14.138l9.624-9.889h206.92m.166-.521H12.651L2.71 13.91v151.119l4.193 5.466h196.023l6.851 3.535H440.11l5.526-6.188V15.016l-9.283-7.531H225.248l-5.305-3.757z"/><path fill="#2FC3E9" d="M18.544 171.525h184.234l5.158 2.505H21.196l-2.652-2.505zm1.473 2.505h-2.504l-2.542-2.505h2.505l2.541 2.505zm-3.517 0h-2.505l-2.541-2.505h2.504l2.542 2.505zM7.15 3.728h4.248L2.71 12.732V8.68l4.44-4.952z"/><path fill="#2FC3E9" d="m445.413 19.877-3.426 3.426v148.299l3.703-3.705-.277-148.02z" opacity=".1"/><path fill="#2FC3E9" d="m445.118 162.17-11.713 11.714h6.704l5.527-6.04-.518-5.674z"/><path fill="#2FC3E9" d="M2.71 165.029h169.72l5.275 5.275H6.905l-4.195-5.275z" opacity=".1"/></svg>