<svg xmlns="http://www.w3.org/2000/svg" xml:space="preserve" width="595.28" height="841.89"><g opacity=".1"><path fill="#2FC3E9" d="m257.9 506.53-6.851-3.535H55.151l-3.941-5.136V347.114l9.651-9.886h206.923l5.305 3.756h261.087l8.961 7.27v152.399l-5.25 5.877z"/><path fill="#D92F91" d="m267.625 337.728 5.045 3.573.26.184H533.999l8.638 7.008v151.97l-4.974 5.568H258.021l-6.635-3.424-.216-.111H55.398l-3.688-4.806V347.317l9.362-9.59h206.553m.318-.999H60.651l-9.94 10.183V498.03l4.194 5.466h196.023l6.851 3.535H538.11l5.526-6.187V348.016l-9.283-7.531H273.248l-5.305-3.757z"/></g><path fill="#2FC3E9" d="m270.375 336.728 3.876 2.329h258.675l-2.358-2.358z"/><path fill="#2FC3E9" d="m267.777 337.249 5.169 3.661.136.096h261.086l8.947 7.258v152.381l-5.238 5.864H257.904l-6.738-3.477-.111-.059H55.129l-3.896-5.153V347.138l9.624-9.889h206.92m.166-.521H60.651l-9.94 10.183V498.03l4.194 5.466h196.023l6.851 3.535H538.11l5.526-6.187V348.016l-9.283-7.531H273.248l-5.305-3.757z"/><g fill="#2FC3E9"><path d="M66.544 504.526h184.235l5.158 2.504H69.196zM68.017 507.03h-2.504l-2.542-2.504h2.505zM64.5 507.03h-2.505l-2.541-2.504h2.504z"/></g><path fill="#2FC3E9" d="M55.15 336.728h4.248l-8.688 9.004v-4.052z"/><path fill="#2FC3E9" d="m543.414 352.877-3.426 3.426v148.298l3.703-3.705z" opacity=".1"/><path fill="#2FC3E9" d="m543.119 495.17-11.713 11.714h6.704l5.527-6.04z"/><path fill="#2FC3E9" d="M50.71 498.029h169.72l5.275 5.275h-170.8z" opacity=".1"/><defs opacity=".75"><path id="a" d="M51.285 367.062v130.694l4.361 5.677 196.008-.317 6.623 3.785 273.411-.314 11.353-11.04V368.008l-8.831-6.623V333H50.654z" opacity=".75"/></defs></svg>