<svg xmlns="http://www.w3.org/2000/svg" xml:space="preserve" width="135.667" height="176.5" viewBox="141.084 0 135.667 176.5"><g opacity=".1"><path fill="#2FC3E9" d="m148.514 173.53-5.25-5.878V15.254l8.961-7.27h41.087l5.305-3.756h66.924l9.65 9.886v150.745l-3.94 5.136h-55.898l-6.851 3.535h-59.988z"/><path fill="#D92F91" d="M198.776 4.727h66.554l9.361 9.59V164.69l-3.688 4.806h-55.772l-.216.11-6.635 3.425h-59.642l-4.975-5.568V15.492l8.639-7.008h41.068l.26-.184 5.046-3.573m-.318-.999-5.306 3.757h-41.104l-9.283 7.531v152.827l5.526 6.188h60.332l6.851-3.535h56.023l4.193-5.466V13.91l-9.94-10.182h-67.292z"/></g><path fill="#2FC3E9" d="m155.833 3.699-2.358 2.358h38.675l3.876-2.329-40.193-.029z"/><path fill="#2FC3E9" d="M198.624 4.249h66.92l9.624 9.889V164.82l-3.896 5.152h-55.926l-.111.06-6.737 3.477h-59.974l-5.237-5.864V15.264l8.946-7.258h41.086l.137-.096 5.168-3.661m-.166-.521-5.306 3.757h-41.104l-9.283 7.531v152.827l5.526 6.188h60.332l6.851-3.535h56.023l4.193-5.466V13.91l-9.94-10.182h-67.292z"/><path fill="#2FC3E9" d="M257.205 174.03h-46.741l5.158-2.505h44.234l-2.651 2.505zm3.72-2.505h2.505l-2.542 2.505h-2.504l2.541-2.505zm3.518 0h2.504l-2.541 2.505h-2.505l2.542-2.505zM275.691 8.68v4.052l-8.688-9.004h4.248l4.44 4.952z"/><path fill="#2FC3E9" d="m142.71 167.896 3.703 3.705V23.303l-3.426-3.426-.277 148.019z" opacity=".1"/><path fill="#2FC3E9" d="m142.764 167.844 5.527 6.04h6.704l-11.713-11.714-.518 5.674z"/><path fill="#2FC3E9" d="M271.496 170.305h-30.801l5.275-5.275h29.72l-4.194 5.275z" opacity=".1"/></svg>