<svg xmlns="http://www.w3.org/2000/svg" xml:space="preserve" width="237.25" height="233"><g fill="var(--mainNav-color)"><g opacity=".1"><path d="m90.101 231.418-6.851-3.535H7.321l-4.909-5.166V12.016l10.637-9.901h86.936l5.305 3.757h121.087l8.961 7.27V225.54l-5.25 5.878z"/><path d="m99.826 2.615 5.045 3.573.26.184H226.2l8.638 7.008v211.969l-4.974 5.569H90.222l-6.635-3.424-.216-.111H7.535l-4.624-4.866V12.234l10.334-9.619h86.581m.319-1H12.852L1.912 11.798v211.118l5.194 5.467h76.022l6.851 3.535h140.332l5.526-6.188V12.903l-9.283-7.531H105.449l-5.304-3.757z"/></g><path d="m102.576 1.615 3.876 2.329h118.675l-2.357-2.357z"/><path d="m99.979 2.137 5.169 3.661.136.096H226.37l8.947 7.258v212.379l-5.238 5.865H90.106l-6.738-3.477-.112-.059H7.33l-4.896-5.152V12.025l10.624-9.889h86.921m.166-.521H12.852L1.912 11.798v211.118l5.194 5.467h76.022l6.851 3.535h140.332l5.526-6.188V12.903l-9.283-7.531H105.449l-5.304-3.757z"/><path d="M18.745 229.414h64.236l5.157 2.504H21.397zM20.218 231.918h-2.504l-2.542-2.504h2.505zM16.701 231.918h-2.505l-2.541-2.504h2.504zM7.352 1.615H11.6L1.912 10.62V6.568z"/><path d="m235.615 17.765-3.426 3.425v208.298l3.704-3.703z" opacity=".1"/><path d="m235.32 220.059-11.713 11.712h6.705l5.526-6.041z"/><path d="M1.912 222.916h50.719l5.275 5.275h-50.8z" opacity=".1"/></g><defs opacity=".75"><path id="a" d="M2.486 31.949v190.694l5.361 5.677 76.009-.316 6.623 3.785 133.41-.314 11.353-11.039V32.896l-8.831-6.624V-2.112H1.855z" opacity=".75"/></defs></svg>